# Tiled2Unity generated file. Do not modify by hand.
# Wavefront file for 'university_mesh_0005.obj'

# Vertices (Count = 24)
v 0 -96 0
v -48 -96 0
v -48 -48 0
v 0 -48 0
v -144 -96 0
v -192 -96 0
v -192 -48 0
v -144 -48 0
v -288 -96 0
v -336 -96 0
v -336 -48 0
v -288 -48 0
v -480 -96 0
v -528 -96 0
v -528 -48 0
v -480 -48 0
v -624 -96 0
v -672 -96 0
v -672 -48 0
v -624 -48 0
v -768 -96 0
v -816 -96 0
v -816 -48 0
v -768 -48 0

# Texture cooridinates (Count = 4)
vt 0.625 0.9166667
vt 0.6875 0.9166667
vt 0.6875 1
vt 0.625 1

# Normal
vn 0 0 -1

# Mesh description
g university_mesh_0005

# Faces
f 1/1/1 2/2/1 3/3/1 4/4/1
f 5/1/1 6/2/1 7/3/1 8/4/1
f 9/1/1 10/2/1 11/3/1 12/4/1
f 13/1/1 14/2/1 15/3/1 16/4/1
f 17/1/1 18/2/1 19/3/1 20/4/1
f 21/1/1 22/2/1 23/3/1 24/4/1

