# Tiled2Unity generated file. Do not modify by hand.
# Wavefront file for 'findKey_1_mesh_0001.obj'

# Vertices (Count = 884)
v 0 -16 0
v -16 -16 0
v -16 0 0
v 0 0 0
v -16 -16 0
v -32 -16 0
v -32 0 0
v -16 0 0
v -32 -16 0
v -48 -16 0
v -48 0 0
v -32 0 0
v -48 -16 0
v -64 -16 0
v -64 0 0
v -48 0 0
v -64 -16 0
v -80 -16 0
v -80 0 0
v -64 0 0
v -80 -16 0
v -96 -16 0
v -96 0 0
v -80 0 0
v -96 -16 0
v -112 -16 0
v -112 0 0
v -96 0 0
v -112 -16 0
v -128 -16 0
v -128 0 0
v -112 0 0
v -128 -16 0
v -144 -16 0
v -144 0 0
v -128 0 0
v -144 -16 0
v -160 -16 0
v -160 0 0
v -144 0 0
v -160 -16 0
v -176 -16 0
v -176 0 0
v -160 0 0
v -176 -16 0
v -192 -16 0
v -192 0 0
v -176 0 0
v -192 -16 0
v -208 -16 0
v -208 0 0
v -192 0 0
v -208 -16 0
v -224 -16 0
v -224 0 0
v -208 0 0
v -224 -16 0
v -240 -16 0
v -240 0 0
v -224 0 0
v -240 -16 0
v -256 -16 0
v -256 0 0
v -240 0 0
v -256 -16 0
v -272 -16 0
v -272 0 0
v -256 0 0
v 0 -32 0
v -16 -32 0
v -16 -16 0
v 0 -16 0
v -16 -32 0
v -32 -32 0
v -32 -16 0
v -16 -16 0
v -32 -32 0
v -48 -32 0
v -48 -16 0
v -32 -16 0
v -48 -32 0
v -64 -32 0
v -64 -16 0
v -48 -16 0
v -64 -32 0
v -80 -32 0
v -80 -16 0
v -64 -16 0
v -80 -32 0
v -96 -32 0
v -96 -16 0
v -80 -16 0
v -96 -32 0
v -112 -32 0
v -112 -16 0
v -96 -16 0
v -112 -32 0
v -128 -32 0
v -128 -16 0
v -112 -16 0
v -128 -32 0
v -144 -32 0
v -144 -16 0
v -128 -16 0
v -144 -32 0
v -160 -32 0
v -160 -16 0
v -144 -16 0
v -160 -32 0
v -176 -32 0
v -176 -16 0
v -160 -16 0
v -176 -32 0
v -192 -32 0
v -192 -16 0
v -176 -16 0
v -192 -32 0
v -208 -32 0
v -208 -16 0
v -192 -16 0
v -208 -32 0
v -224 -32 0
v -224 -16 0
v -208 -16 0
v -224 -32 0
v -240 -32 0
v -240 -16 0
v -224 -16 0
v -240 -32 0
v -256 -32 0
v -256 -16 0
v -240 -16 0
v -256 -32 0
v -272 -32 0
v -272 -16 0
v -256 -16 0
v 0 -48 0
v -16 -48 0
v -16 -32 0
v 0 -32 0
v -16 -48 0
v -32 -48 0
v -32 -32 0
v -16 -32 0
v -32 -48 0
v -48 -48 0
v -48 -32 0
v -32 -32 0
v -48 -48 0
v -64 -48 0
v -64 -32 0
v -48 -32 0
v -64 -48 0
v -80 -48 0
v -80 -32 0
v -64 -32 0
v -80 -48 0
v -96 -48 0
v -96 -32 0
v -80 -32 0
v -96 -48 0
v -112 -48 0
v -112 -32 0
v -96 -32 0
v -112 -48 0
v -128 -48 0
v -128 -32 0
v -112 -32 0
v -128 -48 0
v -144 -48 0
v -144 -32 0
v -128 -32 0
v -144 -48 0
v -160 -48 0
v -160 -32 0
v -144 -32 0
v -160 -48 0
v -176 -48 0
v -176 -32 0
v -160 -32 0
v -176 -48 0
v -192 -48 0
v -192 -32 0
v -176 -32 0
v -192 -48 0
v -208 -48 0
v -208 -32 0
v -192 -32 0
v -208 -48 0
v -224 -48 0
v -224 -32 0
v -208 -32 0
v -224 -48 0
v -240 -48 0
v -240 -32 0
v -224 -32 0
v -240 -48 0
v -256 -48 0
v -256 -32 0
v -240 -32 0
v -256 -48 0
v -272 -48 0
v -272 -32 0
v -256 -32 0
v 0 -64 0
v -16 -64 0
v -16 -48 0
v 0 -48 0
v -16 -64 0
v -32 -64 0
v -32 -48 0
v -16 -48 0
v -32 -64 0
v -48 -64 0
v -48 -48 0
v -32 -48 0
v -48 -64 0
v -64 -64 0
v -64 -48 0
v -48 -48 0
v -64 -64 0
v -80 -64 0
v -80 -48 0
v -64 -48 0
v -80 -64 0
v -96 -64 0
v -96 -48 0
v -80 -48 0
v -96 -64 0
v -112 -64 0
v -112 -48 0
v -96 -48 0
v -112 -64 0
v -128 -64 0
v -128 -48 0
v -112 -48 0
v -128 -64 0
v -144 -64 0
v -144 -48 0
v -128 -48 0
v -144 -64 0
v -160 -64 0
v -160 -48 0
v -144 -48 0
v -160 -64 0
v -176 -64 0
v -176 -48 0
v -160 -48 0
v -176 -64 0
v -192 -64 0
v -192 -48 0
v -176 -48 0
v -192 -64 0
v -208 -64 0
v -208 -48 0
v -192 -48 0
v -208 -64 0
v -224 -64 0
v -224 -48 0
v -208 -48 0
v -224 -64 0
v -240 -64 0
v -240 -48 0
v -224 -48 0
v -240 -64 0
v -256 -64 0
v -256 -48 0
v -240 -48 0
v -256 -64 0
v -272 -64 0
v -272 -48 0
v -256 -48 0
v 0 -80 0
v -16 -80 0
v -16 -64 0
v 0 -64 0
v -16 -80 0
v -32 -80 0
v -32 -64 0
v -16 -64 0
v -32 -80 0
v -48 -80 0
v -48 -64 0
v -32 -64 0
v -48 -80 0
v -64 -80 0
v -64 -64 0
v -48 -64 0
v -64 -80 0
v -80 -80 0
v -80 -64 0
v -64 -64 0
v -80 -80 0
v -96 -80 0
v -96 -64 0
v -80 -64 0
v -96 -80 0
v -112 -80 0
v -112 -64 0
v -96 -64 0
v -112 -80 0
v -128 -80 0
v -128 -64 0
v -112 -64 0
v -128 -80 0
v -144 -80 0
v -144 -64 0
v -128 -64 0
v -144 -80 0
v -160 -80 0
v -160 -64 0
v -144 -64 0
v -160 -80 0
v -176 -80 0
v -176 -64 0
v -160 -64 0
v -176 -80 0
v -192 -80 0
v -192 -64 0
v -176 -64 0
v -192 -80 0
v -208 -80 0
v -208 -64 0
v -192 -64 0
v -208 -80 0
v -224 -80 0
v -224 -64 0
v -208 -64 0
v -224 -80 0
v -240 -80 0
v -240 -64 0
v -224 -64 0
v -240 -80 0
v -256 -80 0
v -256 -64 0
v -240 -64 0
v -256 -80 0
v -272 -80 0
v -272 -64 0
v -256 -64 0
v 0 -96 0
v -16 -96 0
v -16 -80 0
v 0 -80 0
v -16 -96 0
v -32 -96 0
v -32 -80 0
v -16 -80 0
v -32 -96 0
v -48 -96 0
v -48 -80 0
v -32 -80 0
v -48 -96 0
v -64 -96 0
v -64 -80 0
v -48 -80 0
v -64 -96 0
v -80 -96 0
v -80 -80 0
v -64 -80 0
v -80 -96 0
v -96 -96 0
v -96 -80 0
v -80 -80 0
v -96 -96 0
v -112 -96 0
v -112 -80 0
v -96 -80 0
v -112 -96 0
v -128 -96 0
v -128 -80 0
v -112 -80 0
v -128 -96 0
v -144 -96 0
v -144 -80 0
v -128 -80 0
v -144 -96 0
v -160 -96 0
v -160 -80 0
v -144 -80 0
v -160 -96 0
v -176 -96 0
v -176 -80 0
v -160 -80 0
v -176 -96 0
v -192 -96 0
v -192 -80 0
v -176 -80 0
v -192 -96 0
v -208 -96 0
v -208 -80 0
v -192 -80 0
v -208 -96 0
v -224 -96 0
v -224 -80 0
v -208 -80 0
v -224 -96 0
v -240 -96 0
v -240 -80 0
v -224 -80 0
v -240 -96 0
v -256 -96 0
v -256 -80 0
v -240 -80 0
v -256 -96 0
v -272 -96 0
v -272 -80 0
v -256 -80 0
v 0 -112 0
v -16 -112 0
v -16 -96 0
v 0 -96 0
v -16 -112 0
v -32 -112 0
v -32 -96 0
v -16 -96 0
v -32 -112 0
v -48 -112 0
v -48 -96 0
v -32 -96 0
v -48 -112 0
v -64 -112 0
v -64 -96 0
v -48 -96 0
v -64 -112 0
v -80 -112 0
v -80 -96 0
v -64 -96 0
v -80 -112 0
v -96 -112 0
v -96 -96 0
v -80 -96 0
v -96 -112 0
v -112 -112 0
v -112 -96 0
v -96 -96 0
v -112 -112 0
v -128 -112 0
v -128 -96 0
v -112 -96 0
v -128 -112 0
v -144 -112 0
v -144 -96 0
v -128 -96 0
v -144 -112 0
v -160 -112 0
v -160 -96 0
v -144 -96 0
v -160 -112 0
v -176 -112 0
v -176 -96 0
v -160 -96 0
v -176 -112 0
v -192 -112 0
v -192 -96 0
v -176 -96 0
v -192 -112 0
v -208 -112 0
v -208 -96 0
v -192 -96 0
v -208 -112 0
v -224 -112 0
v -224 -96 0
v -208 -96 0
v -224 -112 0
v -240 -112 0
v -240 -96 0
v -224 -96 0
v -240 -112 0
v -256 -112 0
v -256 -96 0
v -240 -96 0
v -256 -112 0
v -272 -112 0
v -272 -96 0
v -256 -96 0
v 0 -128 0
v -16 -128 0
v -16 -112 0
v 0 -112 0
v -16 -128 0
v -32 -128 0
v -32 -112 0
v -16 -112 0
v -32 -128 0
v -48 -128 0
v -48 -112 0
v -32 -112 0
v -48 -128 0
v -64 -128 0
v -64 -112 0
v -48 -112 0
v -64 -128 0
v -80 -128 0
v -80 -112 0
v -64 -112 0
v -80 -128 0
v -96 -128 0
v -96 -112 0
v -80 -112 0
v -96 -128 0
v -112 -128 0
v -112 -112 0
v -96 -112 0
v -112 -128 0
v -128 -128 0
v -128 -112 0
v -112 -112 0
v -128 -128 0
v -144 -128 0
v -144 -112 0
v -128 -112 0
v -144 -128 0
v -160 -128 0
v -160 -112 0
v -144 -112 0
v -160 -128 0
v -176 -128 0
v -176 -112 0
v -160 -112 0
v -176 -128 0
v -192 -128 0
v -192 -112 0
v -176 -112 0
v -192 -128 0
v -208 -128 0
v -208 -112 0
v -192 -112 0
v -208 -128 0
v -224 -128 0
v -224 -112 0
v -208 -112 0
v -224 -128 0
v -240 -128 0
v -240 -112 0
v -224 -112 0
v -240 -128 0
v -256 -128 0
v -256 -112 0
v -240 -112 0
v -256 -128 0
v -272 -128 0
v -272 -112 0
v -256 -112 0
v 0 -144 0
v -16 -144 0
v -16 -128 0
v 0 -128 0
v -16 -144 0
v -32 -144 0
v -32 -128 0
v -16 -128 0
v -32 -144 0
v -48 -144 0
v -48 -128 0
v -32 -128 0
v -48 -144 0
v -64 -144 0
v -64 -128 0
v -48 -128 0
v -64 -144 0
v -80 -144 0
v -80 -128 0
v -64 -128 0
v -80 -144 0
v -96 -144 0
v -96 -128 0
v -80 -128 0
v -96 -144 0
v -112 -144 0
v -112 -128 0
v -96 -128 0
v -112 -144 0
v -128 -144 0
v -128 -128 0
v -112 -128 0
v -128 -144 0
v -144 -144 0
v -144 -128 0
v -128 -128 0
v -144 -144 0
v -160 -144 0
v -160 -128 0
v -144 -128 0
v -160 -144 0
v -176 -144 0
v -176 -128 0
v -160 -128 0
v -176 -144 0
v -192 -144 0
v -192 -128 0
v -176 -128 0
v -192 -144 0
v -208 -144 0
v -208 -128 0
v -192 -128 0
v -208 -144 0
v -224 -144 0
v -224 -128 0
v -208 -128 0
v -224 -144 0
v -240 -144 0
v -240 -128 0
v -224 -128 0
v -240 -144 0
v -256 -144 0
v -256 -128 0
v -240 -128 0
v -256 -144 0
v -272 -144 0
v -272 -128 0
v -256 -128 0
v 0 -160 0
v -16 -160 0
v -16 -144 0
v 0 -144 0
v -16 -160 0
v -32 -160 0
v -32 -144 0
v -16 -144 0
v -32 -160 0
v -48 -160 0
v -48 -144 0
v -32 -144 0
v -48 -160 0
v -64 -160 0
v -64 -144 0
v -48 -144 0
v -64 -160 0
v -80 -160 0
v -80 -144 0
v -64 -144 0
v -80 -160 0
v -96 -160 0
v -96 -144 0
v -80 -144 0
v -96 -160 0
v -112 -160 0
v -112 -144 0
v -96 -144 0
v -112 -160 0
v -128 -160 0
v -128 -144 0
v -112 -144 0
v -128 -160 0
v -144 -160 0
v -144 -144 0
v -128 -144 0
v -144 -160 0
v -160 -160 0
v -160 -144 0
v -144 -144 0
v -160 -160 0
v -176 -160 0
v -176 -144 0
v -160 -144 0
v -176 -160 0
v -192 -160 0
v -192 -144 0
v -176 -144 0
v -192 -160 0
v -208 -160 0
v -208 -144 0
v -192 -144 0
v -208 -160 0
v -224 -160 0
v -224 -144 0
v -208 -144 0
v -224 -160 0
v -240 -160 0
v -240 -144 0
v -224 -144 0
v -240 -160 0
v -256 -160 0
v -256 -144 0
v -240 -144 0
v -256 -160 0
v -272 -160 0
v -272 -144 0
v -256 -144 0
v 0 -176 0
v -16 -176 0
v -16 -160 0
v 0 -160 0
v -16 -176 0
v -32 -176 0
v -32 -160 0
v -16 -160 0
v -32 -176 0
v -48 -176 0
v -48 -160 0
v -32 -160 0
v -48 -176 0
v -64 -176 0
v -64 -160 0
v -48 -160 0
v -64 -176 0
v -80 -176 0
v -80 -160 0
v -64 -160 0
v -80 -176 0
v -96 -176 0
v -96 -160 0
v -80 -160 0
v -96 -176 0
v -112 -176 0
v -112 -160 0
v -96 -160 0
v -112 -176 0
v -128 -176 0
v -128 -160 0
v -112 -160 0
v -128 -176 0
v -144 -176 0
v -144 -160 0
v -128 -160 0
v -144 -176 0
v -160 -176 0
v -160 -160 0
v -144 -160 0
v -160 -176 0
v -176 -176 0
v -176 -160 0
v -160 -160 0
v -176 -176 0
v -192 -176 0
v -192 -160 0
v -176 -160 0
v -192 -176 0
v -208 -176 0
v -208 -160 0
v -192 -160 0
v -208 -176 0
v -224 -176 0
v -224 -160 0
v -208 -160 0
v -224 -176 0
v -240 -176 0
v -240 -160 0
v -224 -160 0
v -240 -176 0
v -256 -176 0
v -256 -160 0
v -240 -160 0
v -256 -176 0
v -272 -176 0
v -272 -160 0
v -256 -160 0
v 0 -192 0
v -16 -192 0
v -16 -176 0
v 0 -176 0
v -16 -192 0
v -32 -192 0
v -32 -176 0
v -16 -176 0
v -32 -192 0
v -48 -192 0
v -48 -176 0
v -32 -176 0
v -48 -192 0
v -64 -192 0
v -64 -176 0
v -48 -176 0
v -64 -192 0
v -80 -192 0
v -80 -176 0
v -64 -176 0
v -80 -192 0
v -96 -192 0
v -96 -176 0
v -80 -176 0
v -96 -192 0
v -112 -192 0
v -112 -176 0
v -96 -176 0
v -112 -192 0
v -128 -192 0
v -128 -176 0
v -112 -176 0
v -128 -192 0
v -144 -192 0
v -144 -176 0
v -128 -176 0
v -144 -192 0
v -160 -192 0
v -160 -176 0
v -144 -176 0
v -160 -192 0
v -176 -192 0
v -176 -176 0
v -160 -176 0
v -176 -192 0
v -192 -192 0
v -192 -176 0
v -176 -176 0
v -192 -192 0
v -208 -192 0
v -208 -176 0
v -192 -176 0
v -208 -192 0
v -224 -192 0
v -224 -176 0
v -208 -176 0
v -224 -192 0
v -240 -192 0
v -240 -176 0
v -224 -176 0
v -240 -192 0
v -256 -192 0
v -256 -176 0
v -240 -176 0
v -256 -192 0
v -272 -192 0
v -272 -176 0
v -256 -176 0
v 0 -208 0
v -16 -208 0
v -16 -192 0
v 0 -192 0
v -16 -208 0
v -32 -208 0
v -32 -192 0
v -16 -192 0
v -32 -208 0
v -48 -208 0
v -48 -192 0
v -32 -192 0
v -48 -208 0
v -64 -208 0
v -64 -192 0
v -48 -192 0
v -64 -208 0
v -80 -208 0
v -80 -192 0
v -64 -192 0
v -80 -208 0
v -96 -208 0
v -96 -192 0
v -80 -192 0
v -96 -208 0
v -112 -208 0
v -112 -192 0
v -96 -192 0
v -112 -208 0
v -128 -208 0
v -128 -192 0
v -112 -192 0
v -128 -208 0
v -144 -208 0
v -144 -192 0
v -128 -192 0
v -144 -208 0
v -160 -208 0
v -160 -192 0
v -144 -192 0
v -160 -208 0
v -176 -208 0
v -176 -192 0
v -160 -192 0
v -176 -208 0
v -192 -208 0
v -192 -192 0
v -176 -192 0
v -192 -208 0
v -208 -208 0
v -208 -192 0
v -192 -192 0
v -208 -208 0
v -224 -208 0
v -224 -192 0
v -208 -192 0
v -224 -208 0
v -240 -208 0
v -240 -192 0
v -224 -192 0
v -240 -208 0
v -256 -208 0
v -256 -192 0
v -240 -192 0
v -256 -208 0
v -272 -208 0
v -272 -192 0
v -256 -192 0

# Texture cooridinates (Count = 84)
vt 0.1683168 0.3366337
vt 0.3267327 0.3366337
vt 0.3267327 0.4950495
vt 0.1683168 0.4950495
vt 0.3366337 0.3366337
vt 0.4950495 0.3366337
vt 0.4950495 0.4950495
vt 0.3366337 0.4950495
vt 0 0.8415841
vt 0.1584158 0.8415841
vt 0.1584158 1
vt 0 1
vt 0.1683168 0.8415841
vt 0.3267327 0.8415841
vt 0.3267327 1
vt 0.1683168 1
vt 0.3366337 0.8415841
vt 0.4950495 0.8415841
vt 0.4950495 1
vt 0.3366337 1
vt 0.1683168 0.1683168
vt 0.3267327 0.1683168
vt 0.3267327 0.3267327
vt 0.1683168 0.3267327
vt 0.3366337 0.1683168
vt 0.4950495 0.1683168
vt 0.4950495 0.3267327
vt 0.3366337 0.3267327
vt 0 0.6732674
vt 0.1584158 0.6732674
vt 0.1584158 0.8316832
vt 0 0.8316832
vt 0.1683168 0.6732674
vt 0.3267327 0.6732674
vt 0.3267327 0.8316832
vt 0.1683168 0.8316832
vt 0.3366337 0.6732674
vt 0.4950495 0.6732674
vt 0.4950495 0.8316832
vt 0.3366337 0.8316832
vt 0.1683168 0
vt 0.3267327 0
vt 0.3267327 0.1584159
vt 0.1683168 0.1584159
vt 0.3366337 0
vt 0.4950495 0
vt 0.4950495 0.1584159
vt 0.3366337 0.1584159
vt 0.6732673 0.8415841
vt 0.8316832 0.8415841
vt 0.8316832 1
vt 0.6732673 1
vt 0.8415841 0.8415841
vt 1 0.8415841
vt 1 1
vt 0.8415841 1
vt 0.6732673 0.6732674
vt 0.8316832 0.6732674
vt 0.8316832 0.8316832
vt 0.6732673 0.8316832
vt 0.8415841 0.6732674
vt 1 0.6732674
vt 1 0.8316832
vt 0.8415841 0.8316832
vt 0.6732673 0.5049505
vt 0.8316832 0.5049505
vt 0.8316832 0.6633663
vt 0.6732673 0.6633663
vt 0.8415841 0.5049505
vt 1 0.5049505
vt 1 0.6633663
vt 0.8415841 0.6633663
vt 0.1683168 0.5049505
vt 0.3267327 0.5049505
vt 0.3267327 0.6633663
vt 0.1683168 0.6633663
vt 0 0.5049505
vt 0.1584158 0.5049505
vt 0.1584158 0.6633663
vt 0 0.6633663
vt 0.3366337 0.5049505
vt 0.4950495 0.5049505
vt 0.4950495 0.6633663
vt 0.3366337 0.6633663

# Normal
vn 0 0 -1

# Mesh description
g findKey_1_mesh_0001

# Faces
f 1/1/1 2/2/1 3/3/1 4/4/1
f 5/1/1 6/2/1 7/3/1 8/4/1
f 9/1/1 10/2/1 11/3/1 12/4/1
f 13/1/1 14/2/1 15/3/1 16/4/1
f 17/5/1 18/6/1 19/7/1 20/8/1
f 21/9/1 22/10/1 23/11/1 24/12/1
f 25/13/1 26/14/1 27/15/1 28/16/1
f 29/13/1 30/14/1 31/15/1 32/16/1
f 33/13/1 34/14/1 35/15/1 36/16/1
f 37/13/1 38/14/1 39/15/1 40/16/1
f 41/13/1 42/14/1 43/15/1 44/16/1
f 45/13/1 46/14/1 47/15/1 48/16/1
f 49/13/1 50/14/1 51/15/1 52/16/1
f 53/13/1 54/14/1 55/15/1 56/16/1
f 57/13/1 58/14/1 59/15/1 60/16/1
f 61/13/1 62/14/1 63/15/1 64/16/1
f 65/17/1 66/18/1 67/19/1 68/20/1
f 69/21/1 70/22/1 71/23/1 72/24/1
f 73/21/1 74/22/1 75/23/1 76/24/1
f 77/21/1 78/22/1 79/23/1 80/24/1
f 81/21/1 82/22/1 83/23/1 84/24/1
f 85/25/1 86/26/1 87/27/1 88/28/1
f 89/29/1 90/30/1 91/31/1 92/32/1
f 93/33/1 94/34/1 95/35/1 96/36/1
f 97/33/1 98/34/1 99/35/1 100/36/1
f 101/33/1 102/34/1 103/35/1 104/36/1
f 105/33/1 106/34/1 107/35/1 108/36/1
f 109/33/1 110/34/1 111/35/1 112/36/1
f 113/33/1 114/34/1 115/35/1 116/36/1
f 117/33/1 118/34/1 119/35/1 120/36/1
f 121/33/1 122/34/1 123/35/1 124/36/1
f 125/33/1 126/34/1 127/35/1 128/36/1
f 129/33/1 130/34/1 131/35/1 132/36/1
f 133/37/1 134/38/1 135/39/1 136/40/1
f 137/41/1 138/42/1 139/43/1 140/44/1
f 141/41/1 142/42/1 143/43/1 144/44/1
f 145/41/1 146/42/1 147/43/1 148/44/1
f 149/41/1 150/42/1 151/43/1 152/44/1
f 153/45/1 154/46/1 155/47/1 156/48/1
f 157/29/1 158/30/1 159/31/1 160/32/1
f 161/33/1 162/34/1 163/35/1 164/36/1
f 165/33/1 166/34/1 167/35/1 168/36/1
f 169/33/1 170/34/1 171/35/1 172/36/1
f 173/33/1 174/34/1 175/35/1 176/36/1
f 177/33/1 178/34/1 179/35/1 180/36/1
f 181/33/1 182/34/1 183/35/1 184/36/1
f 185/33/1 186/34/1 187/35/1 188/36/1
f 189/33/1 190/34/1 191/35/1 192/36/1
f 193/33/1 194/34/1 195/35/1 196/36/1
f 197/33/1 198/34/1 199/35/1 200/36/1
f 201/37/1 202/38/1 203/39/1 204/40/1
f 205/13/1 206/14/1 207/15/1 208/16/1
f 209/13/1 210/14/1 211/15/1 212/16/1
f 213/13/1 214/14/1 215/15/1 216/16/1
f 217/13/1 218/14/1 219/15/1 220/16/1
f 221/13/1 222/14/1 223/15/1 224/16/1
f 225/33/1 226/34/1 227/35/1 228/36/1
f 229/33/1 230/34/1 231/35/1 232/36/1
f 233/33/1 234/34/1 235/35/1 236/36/1
f 237/33/1 238/34/1 239/35/1 240/36/1
f 241/33/1 242/34/1 243/35/1 244/36/1
f 245/33/1 246/34/1 247/35/1 248/36/1
f 249/33/1 250/34/1 251/35/1 252/36/1
f 253/33/1 254/34/1 255/35/1 256/36/1
f 257/33/1 258/34/1 259/35/1 260/36/1
f 261/33/1 262/34/1 263/35/1 264/36/1
f 265/33/1 266/34/1 267/35/1 268/36/1
f 269/37/1 270/38/1 271/39/1 272/40/1
f 273/33/1 274/34/1 275/35/1 276/36/1
f 277/33/1 278/34/1 279/35/1 280/36/1
f 281/33/1 282/34/1 283/35/1 284/36/1
f 285/33/1 286/34/1 287/35/1 288/36/1
f 289/33/1 290/34/1 291/35/1 292/36/1
f 293/33/1 294/34/1 295/35/1 296/36/1
f 297/33/1 298/34/1 299/35/1 300/36/1
f 301/33/1 302/34/1 303/35/1 304/36/1
f 305/33/1 306/34/1 307/35/1 308/36/1
f 309/33/1 310/34/1 311/35/1 312/36/1
f 313/33/1 314/34/1 315/35/1 316/36/1
f 317/33/1 318/34/1 319/35/1 320/36/1
f 321/33/1 322/34/1 323/35/1 324/36/1
f 325/33/1 326/34/1 327/35/1 328/36/1
f 329/33/1 330/34/1 331/35/1 332/36/1
f 333/33/1 334/34/1 335/35/1 336/36/1
f 337/37/1 338/38/1 339/39/1 340/40/1
f 341/49/1 342/50/1 343/51/1 344/52/1
f 345/49/1 346/50/1 347/51/1 348/52/1
f 349/49/1 350/50/1 351/51/1 352/52/1
f 353/49/1 354/50/1 355/51/1 356/52/1
f 357/49/1 358/50/1 359/51/1 360/52/1
f 361/49/1 362/50/1 363/51/1 364/52/1
f 365/53/1 366/54/1 367/55/1 368/56/1
f 369/33/1 370/34/1 371/35/1 372/36/1
f 373/33/1 374/34/1 375/35/1 376/36/1
f 377/33/1 378/34/1 379/35/1 380/36/1
f 381/33/1 382/34/1 383/35/1 384/36/1
f 385/33/1 386/34/1 387/35/1 388/36/1
f 389/33/1 390/34/1 391/35/1 392/36/1
f 393/33/1 394/34/1 395/35/1 396/36/1
f 397/33/1 398/34/1 399/35/1 400/36/1
f 401/33/1 402/34/1 403/35/1 404/36/1
f 405/37/1 406/38/1 407/39/1 408/40/1
f 409/57/1 410/58/1 411/59/1 412/60/1
f 413/57/1 414/58/1 415/59/1 416/60/1
f 417/57/1 418/58/1 419/59/1 420/60/1
f 421/57/1 422/58/1 423/59/1 424/60/1
f 425/57/1 426/58/1 427/59/1 428/60/1
f 429/57/1 430/58/1 431/59/1 432/60/1
f 433/61/1 434/62/1 435/63/1 436/64/1
f 437/33/1 438/34/1 439/35/1 440/36/1
f 441/33/1 442/34/1 443/35/1 444/36/1
f 445/33/1 446/34/1 447/35/1 448/36/1
f 449/33/1 450/34/1 451/35/1 452/36/1
f 453/33/1 454/34/1 455/35/1 456/36/1
f 457/33/1 458/34/1 459/35/1 460/36/1
f 461/33/1 462/34/1 463/35/1 464/36/1
f 465/33/1 466/34/1 467/35/1 468/36/1
f 469/33/1 470/34/1 471/35/1 472/36/1
f 473/37/1 474/38/1 475/39/1 476/40/1
f 477/65/1 478/66/1 479/67/1 480/68/1
f 481/65/1 482/66/1 483/67/1 484/68/1
f 485/65/1 486/66/1 487/67/1 488/68/1
f 489/65/1 490/66/1 491/67/1 492/68/1
f 493/65/1 494/66/1 495/67/1 496/68/1
f 497/65/1 498/66/1 499/67/1 500/68/1
f 501/69/1 502/70/1 503/71/1 504/72/1
f 505/33/1 506/34/1 507/35/1 508/36/1
f 509/33/1 510/34/1 511/35/1 512/36/1
f 513/33/1 514/34/1 515/35/1 516/36/1
f 517/33/1 518/34/1 519/35/1 520/36/1
f 521/33/1 522/34/1 523/35/1 524/36/1
f 525/33/1 526/34/1 527/35/1 528/36/1
f 529/33/1 530/34/1 531/35/1 532/36/1
f 533/33/1 534/34/1 535/35/1 536/36/1
f 537/33/1 538/34/1 539/35/1 540/36/1
f 541/37/1 542/38/1 543/39/1 544/40/1
f 545/33/1 546/34/1 547/35/1 548/36/1
f 549/33/1 550/34/1 551/35/1 552/36/1
f 553/33/1 554/34/1 555/35/1 556/36/1
f 557/33/1 558/34/1 559/35/1 560/36/1
f 561/33/1 562/34/1 563/35/1 564/36/1
f 565/33/1 566/34/1 567/35/1 568/36/1
f 569/33/1 570/34/1 571/35/1 572/36/1
f 573/33/1 574/34/1 575/35/1 576/36/1
f 577/33/1 578/34/1 579/35/1 580/36/1
f 581/33/1 582/34/1 583/35/1 584/36/1
f 585/33/1 586/34/1 587/35/1 588/36/1
f 589/33/1 590/34/1 591/35/1 592/36/1
f 593/33/1 594/34/1 595/35/1 596/36/1
f 597/33/1 598/34/1 599/35/1 600/36/1
f 601/33/1 602/34/1 603/35/1 604/36/1
f 605/33/1 606/34/1 607/35/1 608/36/1
f 609/37/1 610/38/1 611/39/1 612/40/1
f 613/73/1 614/74/1 615/75/1 616/76/1
f 617/73/1 618/74/1 619/75/1 620/76/1
f 621/73/1 622/74/1 623/75/1 624/76/1
f 625/73/1 626/74/1 627/75/1 628/76/1
f 629/73/1 630/74/1 631/75/1 632/76/1
f 633/33/1 634/34/1 635/35/1 636/36/1
f 637/33/1 638/34/1 639/35/1 640/36/1
f 641/33/1 642/34/1 643/35/1 644/36/1
f 645/33/1 646/34/1 647/35/1 648/36/1
f 649/33/1 650/34/1 651/35/1 652/36/1
f 653/33/1 654/34/1 655/35/1 656/36/1
f 657/33/1 658/34/1 659/35/1 660/36/1
f 661/33/1 662/34/1 663/35/1 664/36/1
f 665/33/1 666/34/1 667/35/1 668/36/1
f 669/33/1 670/34/1 671/35/1 672/36/1
f 673/33/1 674/34/1 675/35/1 676/36/1
f 677/37/1 678/38/1 679/39/1 680/40/1
f 681/1/1 682/2/1 683/3/1 684/4/1
f 685/1/1 686/2/1 687/3/1 688/4/1
f 689/1/1 690/2/1 691/3/1 692/4/1
f 693/1/1 694/2/1 695/3/1 696/4/1
f 697/5/1 698/6/1 699/7/1 700/8/1
f 701/29/1 702/30/1 703/31/1 704/32/1
f 705/33/1 706/34/1 707/35/1 708/36/1
f 709/33/1 710/34/1 711/35/1 712/36/1
f 713/33/1 714/34/1 715/35/1 716/36/1
f 717/33/1 718/34/1 719/35/1 720/36/1
f 721/33/1 722/34/1 723/35/1 724/36/1
f 725/33/1 726/34/1 727/35/1 728/36/1
f 729/33/1 730/34/1 731/35/1 732/36/1
f 733/33/1 734/34/1 735/35/1 736/36/1
f 737/33/1 738/34/1 739/35/1 740/36/1
f 741/33/1 742/34/1 743/35/1 744/36/1
f 745/37/1 746/38/1 747/39/1 748/40/1
f 749/21/1 750/22/1 751/23/1 752/24/1
f 753/21/1 754/22/1 755/23/1 756/24/1
f 757/21/1 758/22/1 759/23/1 760/24/1
f 761/21/1 762/22/1 763/23/1 764/24/1
f 765/25/1 766/26/1 767/27/1 768/28/1
f 769/29/1 770/30/1 771/31/1 772/32/1
f 773/33/1 774/34/1 775/35/1 776/36/1
f 777/33/1 778/34/1 779/35/1 780/36/1
f 781/33/1 782/34/1 783/35/1 784/36/1
f 785/33/1 786/34/1 787/35/1 788/36/1
f 789/33/1 790/34/1 791/35/1 792/36/1
f 793/33/1 794/34/1 795/35/1 796/36/1
f 797/33/1 798/34/1 799/35/1 800/36/1
f 801/33/1 802/34/1 803/35/1 804/36/1
f 805/33/1 806/34/1 807/35/1 808/36/1
f 809/33/1 810/34/1 811/35/1 812/36/1
f 813/37/1 814/38/1 815/39/1 816/40/1
f 817/41/1 818/42/1 819/43/1 820/44/1
f 821/41/1 822/42/1 823/43/1 824/44/1
f 825/41/1 826/42/1 827/43/1 828/44/1
f 829/41/1 830/42/1 831/43/1 832/44/1
f 833/45/1 834/46/1 835/47/1 836/48/1
f 837/77/1 838/78/1 839/79/1 840/80/1
f 841/73/1 842/74/1 843/75/1 844/76/1
f 845/73/1 846/74/1 847/75/1 848/76/1
f 849/73/1 850/74/1 851/75/1 852/76/1
f 853/73/1 854/74/1 855/75/1 856/76/1
f 857/73/1 858/74/1 859/75/1 860/76/1
f 861/73/1 862/74/1 863/75/1 864/76/1
f 865/73/1 866/74/1 867/75/1 868/76/1
f 869/73/1 870/74/1 871/75/1 872/76/1
f 873/73/1 874/74/1 875/75/1 876/76/1
f 877/73/1 878/74/1 879/75/1 880/76/1
f 881/81/1 882/82/1 883/83/1 884/84/1

