# Tiled2Unity generated file. Do not modify by hand.
# Wavefront file for 'start_mesh_0002.obj'

# Vertices (Count = 188)
v -32 -16 0
v -48 -16 0
v -48 0 0
v -32 0 0
v -80 -16 0
v -96 -16 0
v -96 0 0
v -80 0 0
v -96 -16 0
v -112 -16 0
v -112 0 0
v -96 0 0
v -112 -16 0
v -128 -16 0
v -128 0 0
v -112 0 0
v -80 -32 0
v -96 -32 0
v -96 -16 0
v -80 -16 0
v -96 -32 0
v -112 -32 0
v -112 -16 0
v -96 -16 0
v -112 -32 0
v -128 -32 0
v -128 -16 0
v -112 -16 0
v -128 -32 0
v -144 -32 0
v -144 -16 0
v -128 -16 0
v -160 -32 0
v -176 -32 0
v -176 -16 0
v -160 -16 0
v -16 -48 0
v -32 -48 0
v -32 -32 0
v -16 -32 0
v -80 -48 0
v -96 -48 0
v -96 -32 0
v -80 -32 0
v -96 -48 0
v -112 -48 0
v -112 -32 0
v -96 -32 0
v -112 -48 0
v -128 -48 0
v -128 -32 0
v -112 -32 0
v -160 -48 0
v -176 -48 0
v -176 -32 0
v -160 -32 0
v -192 -48 0
v -208 -48 0
v -208 -32 0
v -192 -32 0
v -208 -48 0
v -224 -48 0
v -224 -32 0
v -208 -32 0
v -16 -64 0
v -32 -64 0
v -32 -48 0
v -16 -48 0
v -80 -64 0
v -96 -64 0
v -96 -48 0
v -80 -48 0
v -128 -64 0
v -144 -64 0
v -144 -48 0
v -128 -48 0
v -160 -64 0
v -176 -64 0
v -176 -48 0
v -160 -48 0
v -176 -64 0
v -192 -64 0
v -192 -48 0
v -176 -48 0
v -192 -64 0
v -208 -64 0
v -208 -48 0
v -192 -48 0
v -208 -64 0
v -224 -64 0
v -224 -48 0
v -208 -48 0
v -224 -64 0
v -240 -64 0
v -240 -48 0
v -224 -48 0
v -16 -80 0
v -32 -80 0
v -32 -64 0
v -16 -64 0
v -192 -80 0
v -208 -80 0
v -208 -64 0
v -192 -64 0
v -208 -80 0
v -224 -80 0
v -224 -64 0
v -208 -64 0
v 0 -96 0
v -16 -96 0
v -16 -80 0
v 0 -80 0
v -176 -144 0
v -192 -144 0
v -192 -128 0
v -176 -128 0
v -64 -160 0
v -80 -160 0
v -80 -144 0
v -64 -144 0
v -80 -160 0
v -96 -160 0
v -96 -144 0
v -80 -144 0
v -64 -176 0
v -80 -176 0
v -80 -160 0
v -64 -160 0
v -80 -176 0
v -96 -176 0
v -96 -160 0
v -80 -160 0
v -96 -176 0
v -112 -176 0
v -112 -160 0
v -96 -160 0
v -160 -176 0
v -176 -176 0
v -176 -160 0
v -160 -160 0
v -16 -192 0
v -32 -192 0
v -32 -176 0
v -16 -176 0
v -48 -192 0
v -64 -192 0
v -64 -176 0
v -48 -176 0
v -64 -192 0
v -80 -192 0
v -80 -176 0
v -64 -176 0
v -80 -192 0
v -96 -192 0
v -96 -176 0
v -80 -176 0
v -96 -192 0
v -112 -192 0
v -112 -176 0
v -96 -176 0
v -112 -192 0
v -128 -192 0
v -128 -176 0
v -112 -176 0
v -144 -192 0
v -160 -192 0
v -160 -176 0
v -144 -176 0
v -160 -192 0
v -176 -192 0
v -176 -176 0
v -160 -176 0
v -16 -208 0
v -32 -208 0
v -32 -192 0
v -16 -192 0
v -96 -208 0
v -112 -208 0
v -112 -192 0
v -96 -192 0
v -144 -208 0
v -160 -208 0
v -160 -192 0
v -144 -192 0
v -160 -208 0
v -176 -208 0
v -176 -192 0
v -160 -192 0

# Texture cooridinates (Count = 84)
vt 0.202381 0.202381
vt 0.3928571 0.202381
vt 0.3928571 0.3928571
vt 0.202381 0.3928571
vt 0.8095238 0.8095238
vt 1 0.8095238
vt 1 1
vt 0.8095238 1
vt 0.4047619 0.8095238
vt 0.5952381 0.8095238
vt 0.5952381 1
vt 0.4047619 1
vt 0.6071429 0.8095238
vt 0.797619 0.8095238
vt 0.797619 1
vt 0.6071429 1
vt 0.8095238 0.6071429
vt 1 0.6071429
vt 1 0.797619
vt 0.8095238 0.797619
vt 0.4047619 0.6071429
vt 0.5952381 0.6071429
vt 0.5952381 0.797619
vt 0.4047619 0.797619
vt 0.6071429 0.6071429
vt 0.797619 0.6071429
vt 0.797619 0.797619
vt 0.6071429 0.797619
vt 0 0.202381
vt 0.1904762 0.202381
vt 0.1904762 0.3928571
vt 0 0.3928571
vt 0.8095238 0.4047619
vt 1 0.4047619
vt 1 0.5952381
vt 0.8095238 0.5952381
vt 0.4047619 0.4047619
vt 0.5952381 0.4047619
vt 0.5952381 0.5952381
vt 0.4047619 0.5952381
vt 0.6071429 0.4047619
vt 0.797619 0.4047619
vt 0.797619 0.5952381
vt 0.6071429 0.5952381
vt 0.8095238 0.202381
vt 1 0.202381
vt 1 0.3928571
vt 0.8095238 0.3928571
vt 0.8095238 0
vt 1 0
vt 1 0.1904762
vt 0.8095238 0.1904762
vt 0.202381 0
vt 0.3928571 0
vt 0.3928571 0.1904762
vt 0.202381 0.1904762
vt 0 0.8095238
vt 0.1904762 0.8095238
vt 0.1904762 1
vt 0 1
vt 0.202381 0.8095238
vt 0.3928571 0.8095238
vt 0.3928571 1
vt 0.202381 1
vt 0 0.6071429
vt 0.1904762 0.6071429
vt 0.1904762 0.797619
vt 0 0.797619
vt 0.202381 0.6071429
vt 0.3928571 0.6071429
vt 0.3928571 0.797619
vt 0.202381 0.797619
vt 0 0.4047619
vt 0.1904762 0.4047619
vt 0.1904762 0.5952381
vt 0 0.5952381
vt 0.202381 0.4047619
vt 0.3928571 0.4047619
vt 0.3928571 0.5952381
vt 0.202381 0.5952381
vt 0.6071429 0
vt 0.797619 0
vt 0.797619 0.1904762
vt 0.6071429 0.1904762

# Normal
vn 0 0 -1

# Mesh description
g start_mesh_0002

# Faces
f 1/1/1 2/2/1 3/3/1 4/4/1
f 5/5/1 6/6/1 7/7/1 8/8/1
f 9/9/1 10/10/1 11/11/1 12/12/1
f 13/13/1 14/14/1 15/15/1 16/16/1
f 17/17/1 18/18/1 19/19/1 20/20/1
f 21/21/1 22/22/1 23/23/1 24/24/1
f 25/25/1 26/26/1 27/27/1 28/28/1
f 29/29/1 30/30/1 31/31/1 32/32/1
f 33/5/1 34/6/1 35/7/1 36/8/1
f 37/5/1 38/6/1 39/7/1 40/8/1
f 41/33/1 42/34/1 43/35/1 44/36/1
f 45/37/1 46/38/1 47/39/1 48/40/1
f 49/41/1 50/42/1 51/43/1 52/44/1
f 53/33/1 54/34/1 55/35/1 56/36/1
f 57/5/1 58/6/1 59/7/1 60/8/1
f 61/5/1 62/6/1 63/7/1 64/8/1
f 65/33/1 66/34/1 67/35/1 68/36/1
f 69/45/1 70/46/1 71/47/1 72/48/1
f 73/49/1 74/50/1 75/51/1 76/52/1
f 77/45/1 78/46/1 79/47/1 80/48/1
f 81/29/1 82/30/1 83/31/1 84/32/1
f 85/33/1 86/34/1 87/35/1 88/36/1
f 89/33/1 90/34/1 91/35/1 92/36/1
f 93/29/1 94/30/1 95/31/1 96/32/1
f 97/53/1 98/54/1 99/55/1 100/56/1
f 101/45/1 102/46/1 103/47/1 104/48/1
f 105/45/1 106/46/1 107/47/1 108/48/1
f 109/1/1 110/2/1 111/3/1 112/4/1
f 113/29/1 114/30/1 115/31/1 116/32/1
f 117/57/1 118/58/1 119/59/1 120/60/1
f 121/61/1 122/62/1 123/63/1 124/64/1
f 125/65/1 126/66/1 127/67/1 128/68/1
f 129/69/1 130/70/1 131/71/1 132/72/1
f 133/5/1 134/6/1 135/7/1 136/8/1
f 137/5/1 138/6/1 139/7/1 140/8/1
f 141/5/1 142/6/1 143/7/1 144/8/1
f 145/29/1 146/30/1 147/31/1 148/32/1
f 149/73/1 150/74/1 151/75/1 152/76/1
f 153/77/1 154/78/1 155/79/1 156/80/1
f 157/33/1 158/34/1 159/35/1 160/36/1
f 161/81/1 162/82/1 163/83/1 164/84/1
f 165/5/1 166/6/1 167/7/1 168/8/1
f 169/33/1 170/34/1 171/35/1 172/36/1
f 173/33/1 174/34/1 175/35/1 176/36/1
f 177/45/1 178/46/1 179/47/1 180/48/1
f 181/33/1 182/34/1 183/35/1 184/36/1
f 185/45/1 186/46/1 187/47/1 188/48/1

