# Tiled2Unity generated file. Do not modify by hand.
# Wavefront file for 'university_mesh_0006.obj'

# Vertices (Count = 64)
v 0 -240 0
v -48 -240 0
v -48 -192 0
v 0 -192 0
v -144 -288 0
v -192 -288 0
v -192 -240 0
v -144 -240 0
v -720 -288 0
v -768 -288 0
v -768 -240 0
v -720 -240 0
v -768 -288 0
v -816 -288 0
v -816 -240 0
v -768 -240 0
v -48 -336 0
v -96 -336 0
v -96 -288 0
v -48 -288 0
v -96 -336 0
v -144 -336 0
v -144 -288 0
v -96 -288 0
v -240 -336 0
v -288 -336 0
v -288 -288 0
v -240 -288 0
v -672 -384 0
v -720 -384 0
v -720 -336 0
v -672 -336 0
v -528 -432 0
v -576 -432 0
v -576 -384 0
v -528 -384 0
v -576 -432 0
v -624 -432 0
v -624 -384 0
v -576 -384 0
v -624 -432 0
v -672 -432 0
v -672 -384 0
v -624 -384 0
v -192 -480 0
v -240 -480 0
v -240 -432 0
v -192 -432 0
v -48 -528 0
v -96 -528 0
v -96 -480 0
v -48 -480 0
v -96 -528 0
v -144 -528 0
v -144 -480 0
v -96 -480 0
v -144 -528 0
v -192 -528 0
v -192 -480 0
v -144 -480 0
v -768 -576 0
v -816 -576 0
v -816 -528 0
v -768 -528 0

# Texture cooridinates (Count = 40)
vt 0.375 0.5625
vt 0.4375 0.5625
vt 0.4375 0.625
vt 0.375 0.625
vt 0.375 0.6875
vt 0.4375 0.6875
vt 0.4375 0.75
vt 0.375 0.75
vt 0.5 0.625
vt 0.5 0.6875
vt 0.375 0.1875
vt 0.4375 0.1875
vt 0.4375 0.25
vt 0.375 0.25
vt 0.5 0.75
vt 0.375 0.8125
vt 0.4375 0.8125
vt 0.4375 0.875
vt 0.375 0.875
vt 0.4375 0.9375
vt 0.375 0.9375
vt 0.1875 0.25
vt 0.25 0.25
vt 0.25 0.3125
vt 0.1875 0.3125
vt 0.3125 0.25
vt 0.3125 0.3125
vt 0.375 0.3125
vt 0.5 0.8125
vt 0.5 0.875
vt 0 0
vt 0.0625 0
vt 0.0625 0.0625
vt 0 0.0625
vt 0.125 0
vt 0.125 0.0625
vt 0.1875 0
vt 0.1875 0.0625
vt 0.375 0.5
vt 0.4375 0.5

# Normal
vn 0 0 -1

# Mesh description
g university_mesh_0006

# Faces
f 1/1/1 2/2/1 3/3/1 4/4/1
f 5/5/1 6/6/1 7/7/1 8/8/1
f 9/3/1 10/9/1 11/10/1 12/6/1
f 13/5/1 14/6/1 15/7/1 16/8/1
f 17/11/1 18/12/1 19/13/1 20/14/1
f 21/6/1 22/10/1 23/15/1 24/7/1
f 25/16/1 26/17/1 27/18/1 28/19/1
f 29/19/1 30/18/1 31/20/1 32/21/1
f 33/22/1 34/23/1 35/24/1 36/25/1
f 37/23/1 38/26/1 39/27/1 40/24/1
f 41/26/1 42/14/1 43/28/1 44/27/1
f 45/17/1 46/29/1 47/30/1 48/18/1
f 49/31/1 50/32/1 51/33/1 52/34/1
f 53/32/1 54/35/1 55/36/1 56/33/1
f 57/35/1 58/37/1 59/38/1 60/36/1
f 61/39/1 62/40/1 63/2/1 64/1/1

