# Tiled2Unity generated file. Do not modify by hand.
# Wavefront file for 'test2_mesh_0003.obj'

# Vertices (Count = 88)
v -336 -48 0
v -384 -48 0
v -384 0 0
v -336 0 0
v -384 -48 0
v -432 -48 0
v -432 0 0
v -384 0 0
v -432 -48 0
v -480 -48 0
v -480 0 0
v -432 0 0
v -96 -144 0
v -144 -144 0
v -144 -96 0
v -96 -96 0
v 0 -288 0
v -48 -288 0
v -48 -240 0
v 0 -240 0
v -480 -288 0
v -528 -288 0
v -528 -240 0
v -480 -240 0
v -768 -288 0
v -816 -288 0
v -816 -240 0
v -768 -240 0
v 0 -336 0
v -48 -336 0
v -48 -288 0
v 0 -288 0
v -768 -336 0
v -816 -336 0
v -816 -288 0
v -768 -288 0
v 0 -384 0
v -48 -384 0
v -48 -336 0
v 0 -336 0
v -48 -384 0
v -96 -384 0
v -96 -336 0
v -48 -336 0
v -336 -384 0
v -384 -384 0
v -384 -336 0
v -336 -336 0
v -384 -384 0
v -432 -384 0
v -432 -336 0
v -384 -336 0
v -432 -384 0
v -480 -384 0
v -480 -336 0
v -432 -336 0
v -768 -384 0
v -816 -384 0
v -816 -336 0
v -768 -336 0
v -336 -432 0
v -384 -432 0
v -384 -384 0
v -336 -384 0
v -384 -432 0
v -432 -432 0
v -432 -384 0
v -384 -384 0
v -432 -432 0
v -480 -432 0
v -480 -384 0
v -432 -384 0
v -384 -480 0
v -432 -480 0
v -432 -432 0
v -384 -432 0
v -384 -528 0
v -432 -528 0
v -432 -480 0
v -384 -480 0
v -384 -576 0
v -432 -576 0
v -432 -528 0
v -384 -528 0
v -384 -624 0
v -432 -624 0
v -432 -576 0
v -384 -576 0

# Texture cooridinates (Count = 19)
vt 0.375 0.25
vt 0.5 0.25
vt 0.5 0.3125
vt 0.375 0.3125
vt 0.125 0.1875
vt 0.25 0.1875
vt 0.25 0.25
vt 0.125 0.25
vt 0.25 0.3125
vt 0.125 0.375
vt 0.25 0.375
vt 0.25 0.4375
vt 0.125 0.4375
vt 0 0.25
vt 0.125 0.3125
vt 0 0.3125
vt 0 0.125
vt 0.125 0.125
vt 0 0.1875

# Normal
vn 0 0 -1

# Mesh description
g test2_mesh_0003

# Faces
f 1/1/1 2/2/1 3/3/1 4/4/1
f 5/5/1 6/6/1 7/7/1 8/8/1
f 9/7/1 10/1/1 11/4/1 12/9/1
f 13/10/1 14/11/1 15/12/1 16/13/1
f 17/14/1 18/8/1 19/15/1 20/16/1
f 21/14/1 22/8/1 23/15/1 24/16/1
f 25/14/1 26/8/1 27/15/1 28/16/1
f 29/17/1 30/18/1 31/5/1 32/19/1
f 33/17/1 34/18/1 35/5/1 36/19/1
f 37/8/1 38/7/1 39/9/1 40/15/1
f 41/8/1 42/7/1 43/9/1 44/15/1
f 45/17/1 46/18/1 47/5/1 48/19/1
f 49/17/1 50/18/1 51/5/1 52/19/1
f 53/17/1 54/18/1 55/5/1 56/19/1
f 57/8/1 58/7/1 59/9/1 60/15/1
f 61/1/1 62/2/1 63/3/1 64/4/1
f 65/19/1 66/5/1 67/8/1 68/14/1
f 69/7/1 70/1/1 71/4/1 72/9/1
f 73/19/1 74/5/1 75/8/1 76/14/1
f 77/19/1 78/5/1 79/8/1 80/14/1
f 81/19/1 82/5/1 83/8/1 84/14/1
f 85/19/1 86/5/1 87/8/1 88/14/1

