# Tiled2Unity generated file. Do not modify by hand.
# Wavefront file for 'findKey_1_mesh_0003.obj'

# Vertices (Count = 176)
v -144 -80 0
v -160 -80 0
v -160 -64 0
v -144 -64 0
v -160 -80 0
v -176 -80 0
v -176 -64 0
v -160 -64 0
v -176 -80 0
v -192 -80 0
v -192 -64 0
v -176 -64 0
v -192 -80 0
v -208 -80 0
v -208 -64 0
v -192 -64 0
v -208 -80 0
v -224 -80 0
v -224 -64 0
v -208 -64 0
v -144 -96 0
v -160 -96 0
v -160 -80 0
v -144 -80 0
v -160 -96 0
v -176 -96 0
v -176 -80 0
v -160 -80 0
v -176 -96 0
v -192 -96 0
v -192 -80 0
v -176 -80 0
v -192 -96 0
v -208 -96 0
v -208 -80 0
v -192 -80 0
v -208 -96 0
v -224 -96 0
v -224 -80 0
v -208 -80 0
v -144 -112 0
v -160 -112 0
v -160 -96 0
v -144 -96 0
v -160 -112 0
v -176 -112 0
v -176 -96 0
v -160 -96 0
v -176 -112 0
v -192 -112 0
v -192 -96 0
v -176 -96 0
v -192 -112 0
v -208 -112 0
v -208 -96 0
v -192 -96 0
v -208 -112 0
v -224 -112 0
v -224 -96 0
v -208 -96 0
v -144 -128 0
v -160 -128 0
v -160 -112 0
v -144 -112 0
v -160 -128 0
v -176 -128 0
v -176 -112 0
v -160 -112 0
v -176 -128 0
v -192 -128 0
v -192 -112 0
v -176 -112 0
v -192 -128 0
v -208 -128 0
v -208 -112 0
v -192 -112 0
v -144 -144 0
v -160 -144 0
v -160 -128 0
v -144 -128 0
v -160 -144 0
v -176 -144 0
v -176 -128 0
v -160 -128 0
v -176 -144 0
v -192 -144 0
v -192 -128 0
v -176 -128 0
v -192 -144 0
v -208 -144 0
v -208 -128 0
v -192 -128 0
v -160 -176 0
v -176 -176 0
v -176 -160 0
v -160 -160 0
v -176 -176 0
v -192 -176 0
v -192 -160 0
v -176 -160 0
v -192 -176 0
v -208 -176 0
v -208 -160 0
v -192 -160 0
v -208 -176 0
v -224 -176 0
v -224 -160 0
v -208 -160 0
v -128 -192 0
v -144 -192 0
v -144 -176 0
v -128 -176 0
v -144 -192 0
v -160 -192 0
v -160 -176 0
v -144 -176 0
v -160 -192 0
v -176 -192 0
v -176 -176 0
v -160 -176 0
v -176 -192 0
v -192 -192 0
v -192 -176 0
v -176 -176 0
v -192 -192 0
v -208 -192 0
v -208 -176 0
v -192 -176 0
v -208 -192 0
v -224 -192 0
v -224 -176 0
v -208 -176 0
v -80 -208 0
v -96 -208 0
v -96 -192 0
v -80 -192 0
v -96 -208 0
v -112 -208 0
v -112 -192 0
v -96 -192 0
v -128 -208 0
v -144 -208 0
v -144 -192 0
v -128 -192 0
v -144 -208 0
v -160 -208 0
v -160 -192 0
v -144 -192 0
v -160 -208 0
v -176 -208 0
v -176 -192 0
v -160 -192 0
v -176 -208 0
v -192 -208 0
v -192 -192 0
v -176 -192 0
v -192 -208 0
v -208 -208 0
v -208 -192 0
v -192 -192 0
v -208 -208 0
v -224 -208 0
v -224 -192 0
v -208 -192 0
v -224 -208 0
v -240 -208 0
v -240 -192 0
v -224 -192 0
v -240 -208 0
v -256 -208 0
v -256 -192 0
v -240 -192 0
v -256 -208 0
v -272 -208 0
v -272 -192 0
v -256 -192 0

# Texture cooridinates (Count = 72)
vt 0 0.3366337
vt 0.1584158 0.3366337
vt 0.1584158 0.4950495
vt 0 0.4950495
vt 0.1683168 0.3366337
vt 0.3267327 0.3366337
vt 0.3267327 0.4950495
vt 0.1683168 0.4950495
vt 0.3366337 0.3366337
vt 0.4950495 0.3366337
vt 0.4950495 0.4950495
vt 0.3366337 0.4950495
vt 0 0.1683168
vt 0.1584158 0.1683168
vt 0.1584158 0.3267327
vt 0 0.3267327
vt 0.1683168 0.1683168
vt 0.3267327 0.1683168
vt 0.3267327 0.3267327
vt 0.1683168 0.3267327
vt 0.3366337 0.1683168
vt 0.4950495 0.1683168
vt 0.4950495 0.3267327
vt 0.3366337 0.3267327
vt 0.3366337 0
vt 0.4950495 0
vt 0.4950495 0.1584159
vt 0.3366337 0.1584159
vt 0 0
vt 0.1584158 0
vt 0.1584158 0.1584159
vt 0 0.1584159
vt 0.1683168 0
vt 0.3267327 0
vt 0.3267327 0.1584159
vt 0.1683168 0.1584159
vt 0.1683168 0.6732674
vt 0.3267327 0.6732674
vt 0.3267327 0.8316832
vt 0.1683168 0.8316832
vt 0.5049505 0.8415841
vt 0.6633663 0.8415841
vt 0.6633663 1
vt 0.5049505 1
vt 0.6732673 0.8415841
vt 0.8316832 0.8415841
vt 0.8316832 1
vt 0.6732673 1
vt 0.8415841 0.8415841
vt 1 0.8415841
vt 1 1
vt 0.8415841 1
vt 0 0.6732674
vt 0.1584158 0.6732674
vt 0.1584158 0.8316832
vt 0 0.8316832
vt 0.5049505 0.6732674
vt 0.6633663 0.6732674
vt 0.6633663 0.8316832
vt 0.5049505 0.8316832
vt 0.6732673 0.6732674
vt 0.8316832 0.6732674
vt 0.8316832 0.8316832
vt 0.6732673 0.8316832
vt 0.8415841 0.6732674
vt 1 0.6732674
vt 1 0.8316832
vt 0.8415841 0.8316832
vt 0.3366337 0.6732674
vt 0.4950495 0.6732674
vt 0.4950495 0.8316832
vt 0.3366337 0.8316832

# Normal
vn 0 0 -1

# Mesh description
g findKey_1_mesh_0003

# Faces
f 1/1/1 2/2/1 3/3/1 4/4/1
f 5/5/1 6/6/1 7/7/1 8/8/1
f 9/5/1 10/6/1 11/7/1 12/8/1
f 13/5/1 14/6/1 15/7/1 16/8/1
f 17/9/1 18/10/1 19/11/1 20/12/1
f 21/13/1 22/14/1 23/15/1 24/16/1
f 25/17/1 26/18/1 27/19/1 28/20/1
f 29/17/1 30/18/1 31/19/1 32/20/1
f 33/17/1 34/18/1 35/19/1 36/20/1
f 37/21/1 38/22/1 39/23/1 40/24/1
f 41/13/1 42/14/1 43/15/1 44/16/1
f 45/17/1 46/18/1 47/19/1 48/20/1
f 49/17/1 50/18/1 51/19/1 52/20/1
f 53/17/1 54/18/1 55/19/1 56/20/1
f 57/25/1 58/26/1 59/27/1 60/28/1
f 61/13/1 62/14/1 63/15/1 64/16/1
f 65/17/1 66/18/1 67/19/1 68/20/1
f 69/17/1 70/18/1 71/19/1 72/20/1
f 73/21/1 74/22/1 75/23/1 76/24/1
f 77/29/1 78/30/1 79/31/1 80/32/1
f 81/33/1 82/34/1 83/35/1 84/36/1
f 85/33/1 86/34/1 87/35/1 88/36/1
f 89/25/1 90/26/1 91/27/1 92/28/1
f 93/37/1 94/38/1 95/39/1 96/40/1
f 97/37/1 98/38/1 99/39/1 100/40/1
f 101/37/1 102/38/1 103/39/1 104/40/1
f 105/37/1 106/38/1 107/39/1 108/40/1
f 109/41/1 110/42/1 111/43/1 112/44/1
f 113/45/1 114/46/1 115/47/1 116/48/1
f 117/45/1 118/46/1 119/47/1 120/48/1
f 121/45/1 122/46/1 123/47/1 124/48/1
f 125/45/1 126/46/1 127/47/1 128/48/1
f 129/49/1 130/50/1 131/51/1 132/52/1
f 133/53/1 134/54/1 135/55/1 136/56/1
f 137/37/1 138/38/1 139/39/1 140/40/1
f 141/57/1 142/58/1 143/59/1 144/60/1
f 145/61/1 146/62/1 147/63/1 148/64/1
f 149/61/1 150/62/1 151/63/1 152/64/1
f 153/61/1 154/62/1 155/63/1 156/64/1
f 157/61/1 158/62/1 159/63/1 160/64/1
f 161/65/1 162/66/1 163/67/1 164/68/1
f 165/37/1 166/38/1 167/39/1 168/40/1
f 169/37/1 170/38/1 171/39/1 172/40/1
f 173/69/1 174/70/1 175/71/1 176/72/1

