# Tiled2Unity generated file. Do not modify by hand.
# Wavefront file for 'findKey_1_mesh_0002.obj'

# Vertices (Count = 104)
v -128 -16 0
v -144 -16 0
v -144 0 0
v -128 0 0
v -144 -16 0
v -160 -16 0
v -160 0 0
v -144 0 0
v -160 -16 0
v -176 -16 0
v -176 0 0
v -160 0 0
v -208 -16 0
v -224 -16 0
v -224 0 0
v -208 0 0
v -128 -32 0
v -144 -32 0
v -144 -16 0
v -128 -16 0
v -144 -32 0
v -160 -32 0
v -160 -16 0
v -144 -16 0
v -160 -32 0
v -176 -32 0
v -176 -16 0
v -160 -16 0
v -208 -32 0
v -224 -32 0
v -224 -16 0
v -208 -16 0
v -128 -48 0
v -144 -48 0
v -144 -32 0
v -128 -32 0
v -144 -48 0
v -160 -48 0
v -160 -32 0
v -144 -32 0
v -160 -48 0
v -176 -48 0
v -176 -32 0
v -160 -32 0
v -208 -48 0
v -224 -48 0
v -224 -32 0
v -208 -32 0
v -224 -48 0
v -240 -48 0
v -240 -32 0
v -224 -32 0
v 0 -64 0
v -16 -64 0
v -16 -48 0
v 0 -48 0
v -32 -64 0
v -48 -64 0
v -48 -48 0
v -32 -48 0
v 0 -80 0
v -16 -80 0
v -16 -64 0
v 0 -64 0
v -16 -80 0
v -32 -80 0
v -32 -64 0
v -16 -64 0
v -256 -80 0
v -272 -80 0
v -272 -64 0
v -256 -64 0
v 0 -96 0
v -16 -96 0
v -16 -80 0
v 0 -80 0
v -224 -112 0
v -240 -112 0
v -240 -96 0
v -224 -96 0
v -208 -128 0
v -224 -128 0
v -224 -112 0
v -208 -112 0
v -224 -128 0
v -240 -128 0
v -240 -112 0
v -224 -112 0
v -208 -144 0
v -224 -144 0
v -224 -128 0
v -208 -128 0
v -208 -160 0
v -224 -160 0
v -224 -144 0
v -208 -144 0
v -96 -176 0
v -112 -176 0
v -112 -160 0
v -96 -160 0
v -112 -208 0
v -128 -208 0
v -128 -192 0
v -112 -192 0

# Texture cooridinates (Count = 32)
vt 0.8095238 0.8095238
vt 1 0.8095238
vt 1 1
vt 0.8095238 1
vt 0.8095238 0.4047619
vt 1 0.4047619
vt 1 0.5952381
vt 0.8095238 0.5952381
vt 0 0.202381
vt 0.1904762 0.202381
vt 0.1904762 0.3928571
vt 0 0.3928571
vt 0.8095238 0.202381
vt 1 0.202381
vt 1 0.3928571
vt 0.8095238 0.3928571
vt 0.202381 0.202381
vt 0.3928571 0.202381
vt 0.3928571 0.3928571
vt 0.202381 0.3928571
vt 0.4047619 0.202381
vt 0.5952381 0.202381
vt 0.5952381 0.3928571
vt 0.4047619 0.3928571
vt 0 0
vt 0.1904762 0
vt 0.1904762 0.1904762
vt 0 0.1904762
vt 0.4047619 0
vt 0.5952381 0
vt 0.5952381 0.1904762
vt 0.4047619 0.1904762

# Normal
vn 0 0 -1

# Mesh description
g findKey_1_mesh_0002

# Faces
f 1/1/1 2/2/1 3/3/1 4/4/1
f 5/1/1 6/2/1 7/3/1 8/4/1
f 9/1/1 10/2/1 11/3/1 12/4/1
f 13/1/1 14/2/1 15/3/1 16/4/1
f 17/5/1 18/6/1 19/7/1 20/8/1
f 21/5/1 22/6/1 23/7/1 24/8/1
f 25/5/1 26/6/1 27/7/1 28/8/1
f 29/5/1 30/6/1 31/7/1 32/8/1
f 33/9/1 34/10/1 35/11/1 36/12/1
f 37/13/1 38/14/1 39/15/1 40/16/1
f 41/13/1 42/14/1 43/15/1 44/16/1
f 45/13/1 46/14/1 47/15/1 48/16/1
f 49/9/1 50/10/1 51/11/1 52/12/1
f 53/1/1 54/2/1 55/3/1 56/4/1
f 57/17/1 58/18/1 59/19/1 60/20/1
f 61/5/1 62/6/1 63/7/1 64/8/1
f 65/21/1 66/22/1 67/23/1 68/24/1
f 69/9/1 70/10/1 71/11/1 72/12/1
f 73/13/1 74/14/1 75/15/1 76/16/1
f 77/25/1 78/26/1 79/27/1 80/28/1
f 81/1/1 82/2/1 83/3/1 84/4/1
f 85/29/1 86/30/1 87/31/1 88/32/1
f 89/5/1 90/6/1 91/7/1 92/8/1
f 93/13/1 94/14/1 95/15/1 96/16/1
f 97/9/1 98/10/1 99/11/1 100/12/1
f 101/1/1 102/2/1 103/3/1 104/4/1

