# Tiled2Unity generated file. Do not modify by hand.
# Wavefront file for 'findKey_3_mesh_0002.obj'

# Vertices (Count = 400)
v 0 -16 0
v -16 -16 0
v -16 0 0
v 0 0 0
v -16 -16 0
v -32 -16 0
v -32 0 0
v -16 0 0
v -32 -16 0
v -48 -16 0
v -48 0 0
v -32 0 0
v -80 -16 0
v -96 -16 0
v -96 0 0
v -80 0 0
v -128 -16 0
v -144 -16 0
v -144 0 0
v -128 0 0
v -144 -16 0
v -160 -16 0
v -160 0 0
v -144 0 0
v -160 -16 0
v -176 -16 0
v -176 0 0
v -160 0 0
v -176 -16 0
v -192 -16 0
v -192 0 0
v -176 0 0
v -192 -16 0
v -208 -16 0
v -208 0 0
v -192 0 0
v -208 -16 0
v -224 -16 0
v -224 0 0
v -208 0 0
v -224 -16 0
v -240 -16 0
v -240 0 0
v -224 0 0
v -240 -16 0
v -256 -16 0
v -256 0 0
v -240 0 0
v -256 -16 0
v -272 -16 0
v -272 0 0
v -256 0 0
v 0 -32 0
v -16 -32 0
v -16 -16 0
v 0 -16 0
v -16 -32 0
v -32 -32 0
v -32 -16 0
v -16 -16 0
v -32 -32 0
v -48 -32 0
v -48 -16 0
v -32 -16 0
v -80 -32 0
v -96 -32 0
v -96 -16 0
v -80 -16 0
v -128 -32 0
v -144 -32 0
v -144 -16 0
v -128 -16 0
v -144 -32 0
v -160 -32 0
v -160 -16 0
v -144 -16 0
v -160 -32 0
v -176 -32 0
v -176 -16 0
v -160 -16 0
v -176 -32 0
v -192 -32 0
v -192 -16 0
v -176 -16 0
v -192 -32 0
v -208 -32 0
v -208 -16 0
v -192 -16 0
v -208 -32 0
v -224 -32 0
v -224 -16 0
v -208 -16 0
v -224 -32 0
v -240 -32 0
v -240 -16 0
v -224 -16 0
v -240 -32 0
v -256 -32 0
v -256 -16 0
v -240 -16 0
v -256 -32 0
v -272 -32 0
v -272 -16 0
v -256 -16 0
v 0 -48 0
v -16 -48 0
v -16 -32 0
v 0 -32 0
v -16 -48 0
v -32 -48 0
v -32 -32 0
v -16 -32 0
v -32 -48 0
v -48 -48 0
v -48 -32 0
v -32 -32 0
v -48 -48 0
v -64 -48 0
v -64 -32 0
v -48 -32 0
v -64 -48 0
v -80 -48 0
v -80 -32 0
v -64 -32 0
v -80 -48 0
v -96 -48 0
v -96 -32 0
v -80 -32 0
v -128 -48 0
v -144 -48 0
v -144 -32 0
v -128 -32 0
v -144 -48 0
v -160 -48 0
v -160 -32 0
v -144 -32 0
v -160 -48 0
v -176 -48 0
v -176 -32 0
v -160 -32 0
v -176 -48 0
v -192 -48 0
v -192 -32 0
v -176 -32 0
v -192 -48 0
v -208 -48 0
v -208 -32 0
v -192 -32 0
v -208 -48 0
v -224 -48 0
v -224 -32 0
v -208 -32 0
v -224 -48 0
v -240 -48 0
v -240 -32 0
v -224 -32 0
v -240 -48 0
v -256 -48 0
v -256 -32 0
v -240 -32 0
v -256 -48 0
v -272 -48 0
v -272 -32 0
v -256 -32 0
v 0 -64 0
v -16 -64 0
v -16 -48 0
v 0 -48 0
v -16 -64 0
v -32 -64 0
v -32 -48 0
v -16 -48 0
v -32 -64 0
v -48 -64 0
v -48 -48 0
v -32 -48 0
v -48 -64 0
v -64 -64 0
v -64 -48 0
v -48 -48 0
v -64 -64 0
v -80 -64 0
v -80 -48 0
v -64 -48 0
v -80 -64 0
v -96 -64 0
v -96 -48 0
v -80 -48 0
v -96 -64 0
v -112 -64 0
v -112 -48 0
v -96 -48 0
v -112 -64 0
v -128 -64 0
v -128 -48 0
v -112 -48 0
v -128 -64 0
v -144 -64 0
v -144 -48 0
v -128 -48 0
v -144 -64 0
v -160 -64 0
v -160 -48 0
v -144 -48 0
v -160 -64 0
v -176 -64 0
v -176 -48 0
v -160 -48 0
v -176 -64 0
v -192 -64 0
v -192 -48 0
v -176 -48 0
v -192 -64 0
v -208 -64 0
v -208 -48 0
v -192 -48 0
v -208 -64 0
v -224 -64 0
v -224 -48 0
v -208 -48 0
v -224 -64 0
v -240 -64 0
v -240 -48 0
v -224 -48 0
v -240 -64 0
v -256 -64 0
v -256 -48 0
v -240 -48 0
v 0 -80 0
v -16 -80 0
v -16 -64 0
v 0 -64 0
v -16 -80 0
v -32 -80 0
v -32 -64 0
v -16 -64 0
v -32 -80 0
v -48 -80 0
v -48 -64 0
v -32 -64 0
v -48 -80 0
v -64 -80 0
v -64 -64 0
v -48 -64 0
v -80 -80 0
v -96 -80 0
v -96 -64 0
v -80 -64 0
v -96 -80 0
v -112 -80 0
v -112 -64 0
v -96 -64 0
v -112 -80 0
v -128 -80 0
v -128 -64 0
v -112 -64 0
v -128 -80 0
v -144 -80 0
v -144 -64 0
v -128 -64 0
v -144 -80 0
v -160 -80 0
v -160 -64 0
v -144 -64 0
v -160 -80 0
v -176 -80 0
v -176 -64 0
v -160 -64 0
v -176 -80 0
v -192 -80 0
v -192 -64 0
v -176 -64 0
v -224 -80 0
v -240 -80 0
v -240 -64 0
v -224 -64 0
v -240 -80 0
v -256 -80 0
v -256 -64 0
v -240 -64 0
v 0 -96 0
v -16 -96 0
v -16 -80 0
v 0 -80 0
v -16 -96 0
v -32 -96 0
v -32 -80 0
v -16 -80 0
v -32 -96 0
v -48 -96 0
v -48 -80 0
v -32 -80 0
v -48 -96 0
v -64 -96 0
v -64 -80 0
v -48 -80 0
v -80 -96 0
v -96 -96 0
v -96 -80 0
v -80 -80 0
v -96 -96 0
v -112 -96 0
v -112 -80 0
v -96 -80 0
v -112 -96 0
v -128 -96 0
v -128 -80 0
v -112 -80 0
v -128 -96 0
v -144 -96 0
v -144 -80 0
v -128 -80 0
v -144 -96 0
v -160 -96 0
v -160 -80 0
v -144 -80 0
v -160 -96 0
v -176 -96 0
v -176 -80 0
v -160 -80 0
v -176 -96 0
v -192 -96 0
v -192 -80 0
v -176 -80 0
v -224 -96 0
v -240 -96 0
v -240 -80 0
v -224 -80 0
v -240 -96 0
v -256 -96 0
v -256 -80 0
v -240 -80 0
v 0 -112 0
v -16 -112 0
v -16 -96 0
v 0 -96 0
v -16 -112 0
v -32 -112 0
v -32 -96 0
v -16 -96 0
v -32 -112 0
v -48 -112 0
v -48 -96 0
v -32 -96 0
v -48 -112 0
v -64 -112 0
v -64 -96 0
v -48 -96 0
v -80 -112 0
v -96 -112 0
v -96 -96 0
v -80 -96 0
v -96 -112 0
v -112 -112 0
v -112 -96 0
v -96 -96 0
v -112 -112 0
v -128 -112 0
v -128 -96 0
v -112 -96 0
v -128 -112 0
v -144 -112 0
v -144 -96 0
v -128 -96 0
v -144 -112 0
v -160 -112 0
v -160 -96 0
v -144 -96 0
v -160 -112 0
v -176 -112 0
v -176 -96 0
v -160 -96 0
v -176 -112 0
v -192 -112 0
v -192 -96 0
v -176 -96 0
v -224 -112 0
v -240 -112 0
v -240 -96 0
v -224 -96 0
v -240 -112 0
v -256 -112 0
v -256 -96 0
v -240 -96 0
v -256 -112 0
v -272 -112 0
v -272 -96 0
v -256 -96 0
v -32 -128 0
v -48 -128 0
v -48 -112 0
v -32 -112 0
v -48 -128 0
v -64 -128 0
v -64 -112 0
v -48 -112 0
v -160 -160 0
v -176 -160 0
v -176 -144 0
v -160 -144 0

# Texture cooridinates (Count = 56)
vt 0.5049505 0.6732674
vt 0.6633663 0.6732674
vt 0.6633663 0.8316832
vt 0.5049505 0.8316832
vt 0.6732673 0.6732674
vt 0.8316832 0.6732674
vt 0.8316832 0.8316832
vt 0.6732673 0.8316832
vt 0.8415841 0.6732674
vt 1 0.6732674
vt 1 0.8316832
vt 0.8415841 0.8316832
vt 0 0.1683168
vt 0.1584158 0.1683168
vt 0.1584158 0.3267327
vt 0 0.3267327
vt 0.1683168 0.1683168
vt 0.3267327 0.1683168
vt 0.3267327 0.3267327
vt 0.1683168 0.3267327
vt 0.3366337 0.1683168
vt 0.4950495 0.1683168
vt 0.4950495 0.3267327
vt 0.3366337 0.3267327
vt 0 0
vt 0.1584158 0
vt 0.1584158 0.1584159
vt 0 0.1584159
vt 0.1683168 0
vt 0.3267327 0
vt 0.3267327 0.1584159
vt 0.1683168 0.1584159
vt 0.3366337 0
vt 0.4950495 0
vt 0.4950495 0.1584159
vt 0.3366337 0.1584159
vt 0.1683168 0.6732674
vt 0.3267327 0.6732674
vt 0.3267327 0.8316832
vt 0.1683168 0.8316832
vt 0.6732673 0.5049505
vt 0.8316832 0.5049505
vt 0.8316832 0.6633663
vt 0.6732673 0.6633663
vt 0.5049505 0.5049505
vt 0.6633663 0.5049505
vt 0.6633663 0.6633663
vt 0.5049505 0.6633663
vt 0.8415841 0.5049505
vt 1 0.5049505
vt 1 0.6633663
vt 0.8415841 0.6633663
vt 0 0.6732674
vt 0.1584158 0.6732674
vt 0.1584158 0.8316832
vt 0 0.8316832

# Normal
vn 0 0 -1

# Mesh description
g findKey_3_mesh_0002

# Faces
f 1/1/1 2/2/1 3/3/1 4/4/1
f 5/5/1 6/6/1 7/7/1 8/8/1
f 9/5/1 10/6/1 11/7/1 12/8/1
f 13/5/1 14/6/1 15/7/1 16/8/1
f 17/5/1 18/6/1 19/7/1 20/8/1
f 21/5/1 22/6/1 23/7/1 24/8/1
f 25/5/1 26/6/1 27/7/1 28/8/1
f 29/9/1 30/10/1 31/11/1 32/12/1
f 33/13/1 34/14/1 35/15/1 36/16/1
f 37/17/1 38/18/1 39/19/1 40/20/1
f 41/17/1 42/18/1 43/19/1 44/20/1
f 45/17/1 46/18/1 47/19/1 48/20/1
f 49/21/1 50/22/1 51/23/1 52/24/1
f 53/1/1 54/2/1 55/3/1 56/4/1
f 57/5/1 58/6/1 59/7/1 60/8/1
f 61/5/1 62/6/1 63/7/1 64/8/1
f 65/5/1 66/6/1 67/7/1 68/8/1
f 69/5/1 70/6/1 71/7/1 72/8/1
f 73/5/1 74/6/1 75/7/1 76/8/1
f 77/5/1 78/6/1 79/7/1 80/8/1
f 81/9/1 82/10/1 83/11/1 84/12/1
f 85/25/1 86/26/1 87/27/1 88/28/1
f 89/29/1 90/30/1 91/31/1 92/32/1
f 93/29/1 94/30/1 95/31/1 96/32/1
f 97/29/1 98/30/1 99/31/1 100/32/1
f 101/33/1 102/34/1 103/35/1 104/36/1
f 105/1/1 106/2/1 107/3/1 108/4/1
f 109/5/1 110/6/1 111/7/1 112/8/1
f 113/5/1 114/6/1 115/7/1 116/8/1
f 117/5/1 118/6/1 119/7/1 120/8/1
f 121/5/1 122/6/1 123/7/1 124/8/1
f 125/5/1 126/6/1 127/7/1 128/8/1
f 129/5/1 130/6/1 131/7/1 132/8/1
f 133/5/1 134/6/1 135/7/1 136/8/1
f 137/5/1 138/6/1 139/7/1 140/8/1
f 141/9/1 142/10/1 143/11/1 144/12/1
f 145/37/1 146/38/1 147/39/1 148/40/1
f 149/37/1 150/38/1 151/39/1 152/40/1
f 153/37/1 154/38/1 155/39/1 156/40/1
f 157/37/1 158/38/1 159/39/1 160/40/1
f 161/37/1 162/38/1 163/39/1 164/40/1
f 165/1/1 166/2/1 167/3/1 168/4/1
f 169/5/1 170/6/1 171/7/1 172/8/1
f 173/5/1 174/6/1 175/7/1 176/8/1
f 177/5/1 178/6/1 179/7/1 180/8/1
f 181/41/1 182/42/1 183/43/1 184/44/1
f 185/5/1 186/6/1 187/7/1 188/8/1
f 189/5/1 190/6/1 191/7/1 192/8/1
f 193/5/1 194/6/1 195/7/1 196/8/1
f 197/5/1 198/6/1 199/7/1 200/8/1
f 201/5/1 202/6/1 203/7/1 204/8/1
f 205/5/1 206/6/1 207/7/1 208/8/1
f 209/9/1 210/10/1 211/11/1 212/12/1
f 213/37/1 214/38/1 215/39/1 216/40/1
f 217/37/1 218/38/1 219/39/1 220/40/1
f 221/37/1 222/38/1 223/39/1 224/40/1
f 225/37/1 226/38/1 227/39/1 228/40/1
f 229/1/1 230/2/1 231/3/1 232/4/1
f 233/5/1 234/6/1 235/7/1 236/8/1
f 237/5/1 238/6/1 239/7/1 240/8/1
f 241/9/1 242/10/1 243/11/1 244/12/1
f 245/1/1 246/2/1 247/3/1 248/4/1
f 249/5/1 250/6/1 251/7/1 252/8/1
f 253/5/1 254/6/1 255/7/1 256/8/1
f 257/5/1 258/6/1 259/7/1 260/8/1
f 261/5/1 262/6/1 263/7/1 264/8/1
f 265/5/1 266/6/1 267/7/1 268/8/1
f 269/9/1 270/10/1 271/11/1 272/12/1
f 273/37/1 274/38/1 275/39/1 276/40/1
f 277/37/1 278/38/1 279/39/1 280/40/1
f 281/1/1 282/2/1 283/3/1 284/4/1
f 285/5/1 286/6/1 287/7/1 288/8/1
f 289/5/1 290/6/1 291/7/1 292/8/1
f 293/9/1 294/10/1 295/11/1 296/12/1
f 297/1/1 298/2/1 299/3/1 300/4/1
f 301/5/1 302/6/1 303/7/1 304/8/1
f 305/5/1 306/6/1 307/7/1 308/8/1
f 309/5/1 310/6/1 311/7/1 312/8/1
f 313/5/1 314/6/1 315/7/1 316/8/1
f 317/5/1 318/6/1 319/7/1 320/8/1
f 321/9/1 322/10/1 323/11/1 324/12/1
f 325/37/1 326/38/1 327/39/1 328/40/1
f 329/37/1 330/38/1 331/39/1 332/40/1
f 333/45/1 334/46/1 335/47/1 336/48/1
f 337/41/1 338/42/1 339/43/1 340/44/1
f 341/5/1 342/6/1 343/7/1 344/8/1
f 345/9/1 346/10/1 347/11/1 348/12/1
f 349/45/1 350/46/1 351/47/1 352/48/1
f 353/41/1 354/42/1 355/43/1 356/44/1
f 357/41/1 358/42/1 359/43/1 360/44/1
f 361/41/1 362/42/1 363/43/1 364/44/1
f 365/41/1 366/42/1 367/43/1 368/44/1
f 369/41/1 370/42/1 371/43/1 372/44/1
f 373/49/1 374/50/1 375/51/1 376/52/1
f 377/37/1 378/38/1 379/39/1 380/40/1
f 381/37/1 382/38/1 383/39/1 384/40/1
f 385/37/1 386/38/1 387/39/1 388/40/1
f 389/45/1 390/46/1 391/47/1 392/48/1
f 393/49/1 394/50/1 395/51/1 396/52/1
f 397/53/1 398/54/1 399/55/1 400/56/1

